<svg viewBox="0 0 66 31" xmlns="http://www.w3.org/2000/svg" xmlns:xlink="http://www.w3.org/1999/xlink" width="66.000000" height="31.000000" fill="none" customFrame="#000000">
	<defs>
		<clipPath id="clipPath_0">
			<rect width="66.000000" height="31.000000" x="0.000000" y="0.000000" fill="rgb(255,255,255)" />
		</clipPath>
		<clipPath id="clipPath_1">
			<rect width="22.000000" height="22.000000" x="44.000000" y="5.000000" fill="rgb(255,255,255)" />
		</clipPath>
		<clipPath id="clipPath_2">
			<rect width="22.000000" height="22.000000" x="44.000000" y="5.000000" fill="rgb(255,255,255)" />
		</clipPath>
		<clipPath id="clipPath_3">
			<rect width="36.000000" height="31.000000" x="0.000000" y="0.000000" fill="rgb(255,255,255)" />
		</clipPath>
	</defs>
	<rect id="Frame" width="66.000000" height="31.000000" x="0.000000" y="0.000000" />
	<rect id="Rectangle" width="66.000000" height="31.000000" x="0.000000" y="0.000000" />
	<g id="Frame" customFrame="url(#clipPath_0)">
		<rect id="Frame" width="66.000000" height="31.000000" x="0.000000" y="0.000000" />
		<rect id="Rectangle" width="66.000000" height="31.000000" x="0.000000" y="0.000000" />
		<g id="Frame" customFrame="url(#clipPath_1)">
			<rect id="Frame" width="22.000000" height="22.000000" x="44.000000" y="5.000000" />
			<rect id="Rectangle" width="22.000000" height="22.000000" x="44.000000" y="5.000000" />
			<g id="Frame" clip-path="url(#clipPath_2)" customFrame="url(#clipPath_2)">
				<rect id="Frame" width="22.000000" height="22.000000" x="44.000000" y="5.000000" />
				<path id="Vector" d="M54.4133 6.40622C54.6637 5.63412 55.7563 5.63412 56.0067 6.40622L57.9616 12.4216C58.0162 12.5899 58.1226 12.7365 58.2656 12.8406C58.4086 12.9446 58.5809 13.0008 58.7578 13.001L65.0854 13.001C65.8962 13.001 66.2346 14.0402 65.5778 14.5179L60.4591 18.2359C60.3161 18.34 60.2097 18.4867 60.1552 18.6549C60.1006 18.8231 60.1006 19.0043 60.1553 19.1725L62.1101 25.189C62.3616 25.9611 61.4774 26.6033 60.8205 26.1266L55.7019 22.4076C55.5587 22.3036 55.3864 22.2477 55.2095 22.2477C55.0326 22.2477 54.8602 22.3036 54.7171 22.4076L49.5995 26.1266C48.9426 26.6033 48.0595 25.9611 48.3099 25.189L50.2647 19.1725C50.3194 19.0043 50.3194 18.8231 50.2648 18.6549C50.2103 18.4867 50.1039 18.34 49.9609 18.2359L44.8412 14.5169C44.1843 14.0402 44.5217 13.001 45.3336 13.001L51.6601 13.001C51.8369 13.0009 52.009 12.9449 52.152 12.841C52.295 12.7371 52.4015 12.5907 52.4563 12.4227L54.4133 6.40517L54.4133 6.40622Z" fill="rgb(35,11,89)" fill-rule="nonzero" />
			</g>
		</g>
		<g id="Frame" customFrame="url(#clipPath_3)">
			<rect id="Frame" width="36.000000" height="31.000000" x="0.000000" y="0.000000" />
			<rect id="Rectangle" width="36.000000" height="31.000000" x="0.000000" y="0.000000" />
			<path id="4.9" d="M10.5703 14.2977L12.9375 14.2977L12.9375 16.0672L10.5703 16.0672L10.5703 20.0281L8.39062 20.0281L8.39062 16.0672L0.621094 16.0672L0.621094 14.7898L8.26172 2.96563L10.5703 2.96563L10.5703 14.2977ZM3.08203 14.2977L8.39062 14.2977L8.39062 5.93047L8.13281 6.39922L3.08203 14.2977ZM16.1136 18.8914C16.1136 18.5164 16.2229 18.2039 16.4417 17.9539C16.6683 17.7039 17.0042 17.5789 17.4495 17.5789C17.8948 17.5789 18.2308 17.7039 18.4573 17.9539C18.6917 18.2039 18.8089 18.5164 18.8089 18.8914C18.8089 19.2508 18.6917 19.5516 18.4573 19.7938C18.2308 20.0359 17.8948 20.157 17.4495 20.157C17.0042 20.157 16.6683 20.0359 16.4417 19.7938C16.2229 19.5516 16.1136 19.2508 16.1136 18.8914ZM31.4303 12.5281C30.9771 13.0672 30.4342 13.5008 29.8013 13.8289C29.1763 14.157 28.4888 14.3211 27.7388 14.3211C26.7545 14.3211 25.8951 14.0789 25.1607 13.5945C24.4342 13.1102 23.8717 12.4305 23.4732 11.5555C23.0748 10.6727 22.8756 9.7 22.8756 8.6375C22.8756 7.49688 23.0904 6.46953 23.5201 5.55547C23.9576 4.64141 24.5748 3.94219 25.3717 3.45781C26.1685 2.97344 27.0982 2.73125 28.1607 2.73125C29.8482 2.73125 31.1763 3.36406 32.1451 4.62969C33.1217 5.8875 33.6099 7.60625 33.6099 9.78594L33.6099 10.4188C33.6099 13.7391 32.9537 16.1648 31.6412 17.6961C30.3287 19.2195 28.3482 20.0008 25.6998 20.0398L25.2779 20.0398L25.2779 18.2117L25.7349 18.2117C27.524 18.1805 28.899 17.7156 29.8599 16.8172C30.8209 15.9109 31.3443 14.4813 31.4303 12.5281ZM28.0904 12.5281C28.817 12.5281 29.4849 12.3055 30.0943 11.8602C30.7115 11.4148 31.1607 10.8641 31.442 10.2078L31.442 9.34063C31.442 7.91875 31.1334 6.7625 30.5162 5.87188C29.899 4.98125 29.1178 4.53594 28.1724 4.53594C27.2193 4.53594 26.4537 4.90313 25.8756 5.6375C25.2974 6.36406 25.0084 7.325 25.0084 8.52031C25.0084 9.68438 25.2857 10.6453 25.8404 11.4031C26.4029 12.1531 27.1529 12.5281 28.0904 12.5281Z" fill="rgb(35,11,89)" fill-rule="nonzero" />
		</g>
	</g>
</svg>
